<?xml version="1.0" encoding="utf-8"?>
<!-- Generator: Adobe Illustrator 26.0.1, SVG Export Plug-In . SVG Version: 6.00 Build 0)  -->
<svg version="1.1" id="Layer_1" xmlns="http://www.w3.org/2000/svg" xmlns:xlink="http://www.w3.org/1999/xlink" x="0px" y="0px"
	 viewBox="0 0 900 275" style="enable-background:new 0 0 900 275;" xml:space="preserve">
<style type="text/css">
	.st0{fill: #faf9f9;}
	.st1{fill:url(#SVGID_1_);}
	.st2{fill:url(#SVGID_00000084514558790478753590000001096253305801277850_);}
	.st3{fill:url(#SVGID_00000057860307523760648330000012603839822853783434_);}
	.st4{fill:url(#SVGID_00000101090626678040905870000006128797367975763104_);}
	.st5{fill:url(#SVGID_00000108286012331325339030000009628291980250804121_);}
	.st6{fill:url(#SVGID_00000095316429626378371150000003783263313649912510_);}
	.st7{fill:url(#SVGID_00000116918219261659790840000008390173126799028144_);}
	.st8{fill:url(#SVGID_00000071548312990327783030000005481386110113768852_);}
	.st9{fill:url(#SVGID_00000055696686796853360910000004853204507864626622_);}
	.st10{fill:url(#SVGID_00000042716095140560928880000013816704923291974532_);}
	.st11{fill:url(#SVGID_00000152951087254871306030000006980127910855374980_);}
	.st12{fill:url(#SVGID_00000090252480857372561530000012778701769283435451_);}
	.st13{fill:url(#SVGID_00000165924748331510230060000015162983229591033738_);}
	.st14{fill:url(#SVGID_00000018930817364138597940000004281267002427600828_);}
	.st15{fill:url(#SVGID_00000136393544128934079080000002075902409385353901_);}
	.st16{fill:url(#SVGID_00000168082953445562390890000007364235912266408112_);}
	.st17{fill:url(#SVGID_00000176014344628394748770000017436344078732966049_);}
	.st18{fill:url(#SVGID_00000145048131159825164210000002620066778518972037_);}
	.st19{fill:url(#SVGID_00000112612158518448559620000009520834238662234544_);}
	.st20{fill:url(#SVGID_00000143593043809818193500000008059765915444096942_);}
	.st21{fill:url(#SVGID_00000047060457769192390960000018001585352059905696_);}
</style>
<g>
	<g>
		<path class="st0" d="M381.6,94.5h18.7l-29.3,86h-17l-29-86h19.2l18.4,65.2L381.6,94.5z"/>
		<path class="st0" d="M467.9,94.5h16.8v86h-18l-35-61.4l-0.2,61.4h-16.8v-86h19l34,59.9L467.9,94.5z"/>
		<path class="st0" d="M523.7,149.4v31.1h-18v-86h39.3c8.4,0,15,2.4,19.7,7.3c4.7,4.9,7.1,11.6,7.1,20.2c0,6-1.7,11.5-5,16.5
			c-4.8,7.2-12.3,10.8-22.5,10.8H523.7z M523.7,134.5h16.8c5.7,0,9.7-1.8,11.8-5.3c1.1-1.9,1.6-4.6,1.6-8.1c0-4.1-1.2-7.1-3.7-9
			c-2.5-1.9-6.5-2.8-12.1-2.8h-14.4V134.5z"/>
		<path class="st0" d="M626,109.6v70.9h-18v-70.9h-26.1V94.5h70v15.1H626z"/>
		<path class="st0" d="M718,94.5v86h-18v-86H718z"/>
		<path class="st0" d="M736.7,180.5v-86h38.1c13,0,22.4,4.8,28.4,14.3c4.4,7.1,6.6,15.9,6.6,26.6c0,11.6-2.4,21.4-7.2,29.4
			c-6.3,10.5-15.8,15.7-28.5,15.7H736.7z M754.5,109.3v56.4h17.5c6.8,0,11.9-3,15.2-9.1c2.8-5,4.2-11.7,4.2-19.9
			c0-11.1-2.3-18.8-7-23.1c-3-2.8-7.3-4.2-12.7-4.2H754.5z"/>
		<path class="st0" d="M900,122.5h-18c-1.2-4.2-2.7-7.3-4.4-9.2c-3.3-3.7-8.1-5.6-14.5-5.6c-5.6,0-10.2,2-13.9,5.9
			c-5,5.2-7.4,13.3-7.4,24.3c0,8.4,1.6,15.2,4.9,20.4c3.8,5.9,9.3,8.9,16.4,8.9c5,0,9.1-1.4,12.4-4.2c3.3-2.8,5.5-6.7,6.6-11.9h18
			c-1.9,9.8-5.9,17.4-11.9,22.9c-6.6,6-15.1,9-25.5,9c-11.7,0-21.1-3.8-28.2-11.5c-7.4-8-11.1-19.3-11.1-33.8
			c0-14.6,3.8-25.9,11.5-34.1c7.2-7.6,16.5-11.5,28-11.5c11.8,0,21.2,3.5,28.3,10.4C897,108.4,900,115.1,900,122.5z"/>
	</g>
	<g>
		<g>
			<linearGradient id="SVGID_1_" gradientUnits="userSpaceOnUse" x1="161.1605" y1="245.7047" x2="56.8701" y2="44.7719">
				<stop  offset="0" style="stop-color:#0D67B1"/>
				<stop  offset="1" style="stop-color:#00A0E3"/>
			</linearGradient>
			<path class="st1" d="M112.1,0.6L3.4,63.3c-2.1,1.2-3.4,3.5-3.4,6v24.9c0,2.8,2.7,4.8,5.3,3.9l110-33.3c1.7-0.5,2.9-2.1,2.9-3.9
				V4.1C118.2,1,114.8-1,112.1,0.6z M70.5,55.9c0,0.6-0.3,1.1-0.9,1.3l-54,22.3c-0.9,0.4-1.9-0.3-1.9-1.3v-4.7c0-0.5,0.3-1,0.8-1.3
				l54-25.2c0.9-0.4,2,0.2,2,1.2V55.9z M104.5,41.9c0,0.6-0.3,1.1-0.9,1.3l-17.5,7.2c-0.9,0.4-1.9-0.3-1.9-1.3v-8.6
				c0-0.5,0.3-1,0.8-1.2l17.5-8.2c0.9-0.4,2,0.2,2,1.3V41.9z"/>
		</g>
		<g>

				<linearGradient id="SVGID_00000163058188478797452500000012494990320317413046_" gradientUnits="userSpaceOnUse" x1="128.1128" y1="262.8629" x2="23.8197" y2="61.9249">
				<stop  offset="0" style="stop-color:#0D67B1"/>
				<stop  offset="1" style="stop-color:#00A0E3"/>
			</linearGradient>
			<path style="fill:url(#SVGID_00000163058188478797452500000012494990320317413046_);" d="M113.6,104.7l-110,15.1
				c-2.1,0.3-3.6,2-3.6,4.1v27.2c0,2.1,1.5,3.8,3.6,4.1l110,15.1c2.5,0.3,4.7-1.6,4.7-4.1v-57.5C118.2,106.3,116,104.3,113.6,104.7z
				 M70.5,141.5c0,0.8-0.6,1.4-1.4,1.4l-54-1.5c-0.7,0-1.3-0.6-1.3-1.4v-5c0-0.7,0.6-1.3,1.3-1.4l54-1.5c0.8,0,1.4,0.6,1.4,1.4
				V141.5z M104.5,142.4c0,0.8-0.6,1.4-1.4,1.4l-17.5-0.5c-0.7,0-1.3-0.6-1.3-1.4v-8.8c0-0.7,0.6-1.3,1.3-1.4l17.5-0.5
				c0.8,0,1.4,0.6,1.4,1.4V142.4z"/>
		</g>
		<g>

				<linearGradient id="SVGID_00000141449942040325164280000001334644419474421177_" gradientUnits="userSpaceOnUse" x1="95.2511" y1="279.9159" x2="-9.0414" y2="78.9791">
				<stop  offset="0" style="stop-color:#0D67B1"/>
				<stop  offset="1" style="stop-color:#00A0E3"/>
			</linearGradient>
			<path style="fill:url(#SVGID_00000141449942040325164280000001334644419474421177_);" d="M115.3,210.2l-110-33.3
				c-2.7-0.8-5.3,1.2-5.3,3.9v24.9c0,2.4,1.3,4.7,3.4,6l108.6,62.7c2.8,1.6,6.2-0.4,6.2-3.6v-56.7
				C118.2,212.4,117,210.7,115.3,210.2z M70.5,226.8c0,1-1,1.7-2,1.2l-54-25.2c-0.5-0.2-0.8-0.7-0.8-1.3v-4.7c0-1,1-1.6,1.9-1.3
				l54,22.3c0.5,0.2,0.9,0.7,0.9,1.3V226.8z M104.5,242.7c0,1-1,1.7-2,1.3L85,235.7c-0.5-0.2-0.8-0.7-0.8-1.3v-8.6
				c0-1,1-1.7,1.9-1.3l17.5,7.2c0.5,0.2,0.9,0.7,0.9,1.3V242.7z"/>
		</g>
		<g>

				<linearGradient id="SVGID_00000162342840577921678110000005315299383731961734_" gradientUnits="userSpaceOnUse" x1="218.3229" y1="227.6013" x2="96.2996" y2="55.5172">
				<stop  offset="0" style="stop-color:#0D67B1"/>
				<stop  offset="1" style="stop-color:#00A0E3"/>
			</linearGradient>
			<path style="fill:url(#SVGID_00000162342840577921678110000005315299383731961734_);" d="M132,108.8l0,57.4
				c0,2.5,2.2,4.4,4.7,4.1l40.5-5.6c2-0.3,3.6-2,3.6-4.1v-46.3c0-2.1-1.5-3.8-3.6-4.1l-40.5-5.6C134.2,104.3,132,106.3,132,108.8z"
				/>
		</g>

			<linearGradient id="SVGID_00000006670024382118884870000010982432738117006220_" gradientUnits="userSpaceOnUse" x1="99.6751" y1="28.5505" x2="217.1779" y2="245.4788">
			<stop  offset="0" style="stop-color:#FFD01C"/>
			<stop  offset="1" style="stop-color:#EE9204"/>
		</linearGradient>
		<path style="fill:url(#SVGID_00000006670024382118884870000010982432738117006220_);" d="M250.3,123.9v27.2c0,2.1-1.5,3.8-3.6,4.1
			l-24.3,3.3l-4,0.6c-21.5,3-37.6,21.4-37.6,43.1v45.3c0,1.5-0.8,2.8-2.1,3.6l-40.6,23.4c-2.8,1.6-6.2-0.4-6.2-3.6v-56.7
			c0-1.8,1.2-3.4,2.9-4l7.3-2.2c15.5-4.7,28.6-14.2,37.8-26.6c9.2-12.4,14.5-27.7,14.5-43.9c0-16.2-5.3-31.5-14.5-43.9
			c-9.2-12.4-22.3-21.9-37.8-26.6l-7.3-2.2c-1.7-0.5-2.9-2.1-2.9-4V4.1c0-3.2,3.4-5.2,6.2-3.6L178.7,24c1.3,0.7,2.1,2.1,2.1,3.6
			v45.3c0,21.8,16.1,40.2,37.6,43.1l4,0.6l24.3,3.3C248.7,120.1,250.3,121.8,250.3,123.9z"/>
		<g>

				<linearGradient id="SVGID_00000153692695205281632170000016811234931303890341_" gradientUnits="userSpaceOnUse" x1="230.3766" y1="219.0542" x2="108.3533" y2="46.9701">
				<stop  offset="0" style="stop-color:#0D67B1"/>
				<stop  offset="1" style="stop-color:#00A0E3"/>
			</linearGradient>
			<path style="fill:url(#SVGID_00000153692695205281632170000016811234931303890341_);" d="M194.6,195.2v39.5
				c0,3.2,3.4,5.2,6.2,3.6l46.1-26.6c2.1-1.2,3.4-3.5,3.4-6v-24.9c0-2.8-2.7-4.8-5.3-4l-47.4,14.3
				C195.8,191.8,194.6,193.4,194.6,195.2z"/>
		</g>
		<g>

				<linearGradient id="SVGID_00000152238433929537174820000010528202577119647654_" gradientUnits="userSpaceOnUse" x1="293.497" y1="174.296" x2="171.4737" y2="2.2119">
				<stop  offset="0" style="stop-color:#0D67B1"/>
				<stop  offset="1" style="stop-color:#00A0E3"/>
			</linearGradient>
			<path style="fill:url(#SVGID_00000152238433929537174820000010528202577119647654_);" d="M194.6,79.8V40.3c0-3.2,3.4-5.2,6.2-3.6
				l46.1,26.6c2.1,1.2,3.4,3.5,3.4,6v24.9c0,2.8-2.7,4.8-5.3,4l-47.4-14.3C195.8,83.2,194.6,81.6,194.6,79.8z"/>
		</g>
	</g>
</g>
</svg>
