<?xml version="1.0" encoding="utf-8"?>
<!-- Generator: Adobe Illustrator 26.0.1, SVG Export Plug-In . SVG Version: 6.00 Build 0)  -->
<svg version="1.1" id="Layer_1" xmlns="http://www.w3.org/2000/svg" xmlns:xlink="http://www.w3.org/1999/xlink" x="0px" y="0px"
	 viewBox="0 0 250.3 275" style="enable-background:new 0 0 250.3 275;" xml:space="preserve">
<style type="text/css">
	.st0{fill:#0D67B1;}
	.st1{fill:url(#SVGID_1_);}
	.st2{fill:url(#SVGID_00000132766862683173635320000009000965086262858941_);}
	.st3{fill:url(#SVGID_00000137106219928100853020000005260381793901490835_);}
	.st4{fill:url(#SVGID_00000025413801960167775100000011017621564887917205_);}
	.st5{fill:url(#SVGID_00000041976318128383029670000016676378267734427579_);}
	.st6{fill:url(#SVGID_00000114791029087818288200000008442056121589816462_);}
	.st7{fill:url(#SVGID_00000000931833586048580460000008089322438384215229_);}
	.st8{fill:url(#SVGID_00000048495152592586686760000013263589035226871948_);}
	.st9{fill:url(#SVGID_00000044153264098436413740000012265884912846305681_);}
	.st10{fill:url(#SVGID_00000146488481462568869590000012529979934258079926_);}
	.st11{fill:url(#SVGID_00000048467803610549749080000007033766974124944040_);}
	.st12{fill:url(#SVGID_00000090294413352974907230000018302502354484020912_);}
	.st13{fill:url(#SVGID_00000103260755393120740060000005305581429037390253_);}
	.st14{fill:url(#SVGID_00000152983716504875740620000013694447836301140096_);}
	.st15{fill:url(#SVGID_00000101821732887991211620000014355955500537101724_);}
	.st16{fill:url(#SVGID_00000031894894881963158280000013792073958824767900_);}
	.st17{fill:url(#SVGID_00000055708630750689504900000013864678269804193690_);}
	.st18{fill:url(#SVGID_00000136379492871705891150000006195089647632007567_);}
	.st19{fill:url(#SVGID_00000182500206551493704180000005052214085754220208_);}
	.st20{fill:url(#SVGID_00000000187095582136741260000002743313113669640360_);}
	.st21{fill:url(#SVGID_00000079460253086987593380000008196479664426689441_);}
</style>
<g>
	<g>
		<g>
			<linearGradient id="SVGID_1_" gradientUnits="userSpaceOnUse" x1="161.1605" y1="245.7047" x2="56.8701" y2="44.7719">
				<stop  offset="0" style="stop-color:#0D67B1"/>
				<stop  offset="1" style="stop-color:#00A0E3"/>
			</linearGradient>
			<path class="st1" d="M112.1,0.6L3.4,63.3c-2.1,1.2-3.4,3.5-3.4,6v24.9c0,2.8,2.7,4.8,5.3,3.9l110-33.3c1.7-0.5,2.9-2.1,2.9-3.9
				V4.1C118.2,1,114.8-1,112.1,0.6z M70.5,55.9c0,0.6-0.3,1.1-0.9,1.3l-54,22.3c-0.9,0.4-1.9-0.3-1.9-1.3v-4.7c0-0.5,0.3-1,0.8-1.3
				l54-25.2c0.9-0.4,2,0.2,2,1.2V55.9z M104.5,41.9c0,0.6-0.3,1.1-0.9,1.3l-17.5,7.2c-0.9,0.4-1.9-0.3-1.9-1.3v-8.6
				c0-0.5,0.3-1,0.8-1.2l17.5-8.2c0.9-0.4,2,0.2,2,1.3V41.9z"/>
		</g>
		<g>
			
				<linearGradient id="SVGID_00000106109715605752598760000005412316726523714193_" gradientUnits="userSpaceOnUse" x1="128.1128" y1="262.8629" x2="23.8197" y2="61.9249">
				<stop  offset="0" style="stop-color:#0D67B1"/>
				<stop  offset="1" style="stop-color:#00A0E3"/>
			</linearGradient>
			<path style="fill:url(#SVGID_00000106109715605752598760000005412316726523714193_);" d="M113.6,104.7l-110,15.1
				c-2.1,0.3-3.6,2-3.6,4.1v27.2c0,2.1,1.5,3.8,3.6,4.1l110,15.1c2.5,0.3,4.7-1.6,4.7-4.1v-57.5C118.2,106.3,116,104.3,113.6,104.7z
				 M70.5,141.5c0,0.8-0.6,1.4-1.4,1.4l-54-1.5c-0.7,0-1.3-0.6-1.3-1.4v-5c0-0.7,0.6-1.3,1.3-1.4l54-1.5c0.8,0,1.4,0.6,1.4,1.4
				V141.5z M104.5,142.4c0,0.8-0.6,1.4-1.4,1.4l-17.5-0.5c-0.7,0-1.3-0.6-1.3-1.4v-8.8c0-0.7,0.6-1.3,1.3-1.4l17.5-0.5
				c0.8,0,1.4,0.6,1.4,1.4V142.4z"/>
		</g>
		<g>
			
				<linearGradient id="SVGID_00000119088151668811059740000007077737812815541945_" gradientUnits="userSpaceOnUse" x1="95.2511" y1="279.9159" x2="-9.0414" y2="78.9791">
				<stop  offset="0" style="stop-color:#0D67B1"/>
				<stop  offset="1" style="stop-color:#00A0E3"/>
			</linearGradient>
			<path style="fill:url(#SVGID_00000119088151668811059740000007077737812815541945_);" d="M115.3,210.2l-110-33.3
				c-2.7-0.8-5.3,1.2-5.3,3.9v24.9c0,2.4,1.3,4.7,3.4,6l108.6,62.7c2.8,1.6,6.2-0.4,6.2-3.6v-56.7
				C118.2,212.4,117,210.7,115.3,210.2z M70.5,226.8c0,1-1,1.7-2,1.2l-54-25.2c-0.5-0.2-0.8-0.7-0.8-1.3v-4.7c0-1,1-1.6,1.9-1.3
				l54,22.3c0.5,0.2,0.9,0.7,0.9,1.3V226.8z M104.5,242.7c0,1-1,1.7-2,1.3L85,235.7c-0.5-0.2-0.8-0.7-0.8-1.3v-8.6
				c0-1,1-1.7,1.9-1.3l17.5,7.2c0.5,0.2,0.9,0.7,0.9,1.3V242.7z"/>
		</g>
		<g>
			
				<linearGradient id="SVGID_00000089545864165368458530000001329320947514332066_" gradientUnits="userSpaceOnUse" x1="218.3229" y1="227.6013" x2="96.2996" y2="55.5172">
				<stop  offset="0" style="stop-color:#0D67B1"/>
				<stop  offset="1" style="stop-color:#00A0E3"/>
			</linearGradient>
			<path style="fill:url(#SVGID_00000089545864165368458530000001329320947514332066_);" d="M132,108.8l0,57.4
				c0,2.5,2.2,4.4,4.7,4.1l40.5-5.6c2-0.3,3.6-2,3.6-4.1v-46.3c0-2.1-1.5-3.8-3.6-4.1l-40.5-5.6C134.2,104.3,132,106.3,132,108.8z"
				/>
		</g>
		
			<linearGradient id="SVGID_00000137117055643764071140000013953278608771834292_" gradientUnits="userSpaceOnUse" x1="99.6751" y1="28.5505" x2="217.1779" y2="245.4788">
			<stop  offset="0" style="stop-color:#FFD01C"/>
			<stop  offset="1" style="stop-color:#EE9204"/>
		</linearGradient>
		<path style="fill:url(#SVGID_00000137117055643764071140000013953278608771834292_);" d="M250.3,123.9v27.2c0,2.1-1.5,3.8-3.6,4.1
			l-24.3,3.3l-4,0.6c-21.5,3-37.6,21.4-37.6,43.1v45.3c0,1.5-0.8,2.8-2.1,3.6l-40.6,23.4c-2.8,1.6-6.2-0.4-6.2-3.6v-56.7
			c0-1.8,1.2-3.4,2.9-4l7.3-2.2c15.5-4.7,28.6-14.2,37.8-26.6c9.2-12.4,14.5-27.7,14.5-43.9c0-16.2-5.3-31.5-14.5-43.9
			c-9.2-12.4-22.3-21.9-37.8-26.6l-7.3-2.2c-1.7-0.5-2.9-2.1-2.9-4V4.1c0-3.2,3.4-5.2,6.2-3.6L178.7,24c1.3,0.7,2.1,2.1,2.1,3.6
			v45.3c0,21.8,16.1,40.2,37.6,43.1l4,0.6l24.3,3.3C248.7,120.1,250.3,121.8,250.3,123.9z"/>
		<g>
			
				<linearGradient id="SVGID_00000148644623716763586790000005376059784787442611_" gradientUnits="userSpaceOnUse" x1="230.3766" y1="219.0542" x2="108.3533" y2="46.9701">
				<stop  offset="0" style="stop-color:#0D67B1"/>
				<stop  offset="1" style="stop-color:#00A0E3"/>
			</linearGradient>
			<path style="fill:url(#SVGID_00000148644623716763586790000005376059784787442611_);" d="M194.6,195.2v39.5
				c0,3.2,3.4,5.2,6.2,3.6l46.1-26.6c2.1-1.2,3.4-3.5,3.4-6v-24.9c0-2.8-2.7-4.8-5.3-4l-47.4,14.3
				C195.8,191.8,194.6,193.4,194.6,195.2z"/>
		</g>
		<g>
			
				<linearGradient id="SVGID_00000102533849255671215860000002241815725201822908_" gradientUnits="userSpaceOnUse" x1="293.497" y1="174.296" x2="171.4737" y2="2.2119">
				<stop  offset="0" style="stop-color:#0D67B1"/>
				<stop  offset="1" style="stop-color:#00A0E3"/>
			</linearGradient>
			<path style="fill:url(#SVGID_00000102533849255671215860000002241815725201822908_);" d="M194.6,79.8V40.3c0-3.2,3.4-5.2,6.2-3.6
				l46.1,26.6c2.1,1.2,3.4,3.5,3.4,6v24.9c0,2.8-2.7,4.8-5.3,4l-47.4-14.3C195.8,83.2,194.6,81.6,194.6,79.8z"/>
		</g>
	</g>
</g>
</svg>
