<?xml version="1.0" encoding="utf-8"?>
<!-- Generator: Adobe Illustrator 26.0.1, SVG Export Plug-In . SVG Version: 6.00 Build 0)  -->
<svg version="1.1" id="Layer_1" xmlns="http://www.w3.org/2000/svg" xmlns:xlink="http://www.w3.org/1999/xlink" x="0px" y="0px"
	 viewBox="0 0 50 56" style="enable-background:new 0 0 50 56;" xml:space="preserve">
<style type="text/css">
	.st0{fill:url(#SVGID_1_);}
	.st1{fill:url(#SVGID_00000048470927913841819290000016089749690657166747_);}
	.st2{fill:url(#SVGID_00000052100268851781213940000003532319016826501801_);}
	.st3{fill:url(#SVGID_00000018934774951803260260000012570398772241477254_);}
	.st4{fill:url(#SVGID_00000066498990019862836360000011265352188818653106_);}
	.st5{fill:#4C4C4C;}
	.st6{fill:#0D67B0;}
	.st7{fill:url(#SVGID_00000014610416958018368570000004050545393898625175_);}
	.st8{fill:url(#SVGID_00000180331325238179313380000006808295016459068334_);}
	.st9{fill:url(#SVGID_00000101806575594360684540000003053907634871144885_);}
	.st10{fill:url(#SVGID_00000024698116874914668350000005129376254789859769_);}
	.st11{fill:url(#SVGID_00000066479925343102583360000007503994424023405190_);}
	.st12{fill:#FFFFFF;}
	.st13{fill:#009EE1;}
	.st14{fill:#ED9104;}
	.st15{fill:#FFCF1C;}
	.st16{fill:url(#SVGID_00000039828338016317211980000011216491073701816744_);}
	.st17{fill:url(#SVGID_00000043420587015892734920000017831917409811647130_);}
	.st18{fill:url(#SVGID_00000042701117784969731220000013421876869263273888_);}
	.st19{fill:url(#SVGID_00000077310135426105946460000001833077480940979641_);}
	.st20{fill:url(#SVGID_00000121981349103956348140000002381111179775517351_);}
	.st21{fill:url(#SVGID_00000106107307017231769390000013986830825046422181_);}
	.st22{fill:url(#SVGID_00000183215593956480381120000013638234151269868707_);}
</style>
<g>
	<g>
		<g>
			<linearGradient id="SVGID_1_" gradientUnits="userSpaceOnUse" x1="16.0256" y1="31.243" x2="31.879" y2="31.243">
				<stop  offset="0" style="stop-color:#0D67B0"/>
				<stop  offset="1" style="stop-color:#009FE2"/>
			</linearGradient>
			<path class="st0" d="M31.68,25.92c-0.16-0.25-0.47-0.37-0.76-0.3l-1.28,0.31c-0.19,0.05-0.4,0.01-0.56-0.1l-0.84-0.57
				c-0.16-0.11-0.27-0.29-0.3-0.49l-0.18-1.31c-0.04-0.3-0.26-0.53-0.55-0.59l-1.36-0.28c-0.29-0.06-0.59,0.07-0.74,0.32l-0.69,1.13
				c-0.1,0.17-0.28,0.29-0.47,0.32l-1,0.19c-0.19,0.04-0.4-0.01-0.55-0.13l-1.05-0.8c-0.24-0.18-0.56-0.19-0.81-0.03l-1.16,0.76
				c-0.25,0.16-0.37,0.46-0.3,0.75l0.31,1.29c0.05,0.19,0.01,0.4-0.1,0.56l-0.57,0.84c-0.11,0.16-0.29,0.27-0.49,0.3l-1.31,0.18
				c-0.3,0.04-0.53,0.26-0.6,0.55l-0.28,1.35c-0.06,0.29,0.07,0.59,0.32,0.75l1.13,0.69c0.17,0.1,0.29,0.28,0.33,0.47L18,33.07
				c0.04,0.2-0.01,0.4-0.13,0.56l-0.8,1.05c-0.18,0.24-0.19,0.56-0.03,0.81l0.76,1.16c0.16,0.25,0.47,0.37,0.76,0.3l1.28-0.31
				c0.19-0.05,0.4-0.01,0.56,0.1l0.84,0.57c0.16,0.11,0.27,0.29,0.3,0.49l0.18,1.31c0.04,0.3,0.26,0.53,0.55,0.59l1.06,0.22
				c1.27-1.51,2.49-3.15,3.65-4.9c-0.66,0.39-1.42,0.62-2.24,0.62c-2.41,0-4.36-1.95-4.36-4.36s1.95-4.36,4.36-4.36
				c2.41,0,4.36,1.95,4.36,4.36c0,0.11,0,0.23-0.01,0.34c0.34-0.58,0.66-1.18,0.98-1.78c0.66-1.24,1.26-2.45,1.81-3.63L31.68,25.92z
				"/>
		</g>
	</g>
	<g>
		
			<linearGradient id="SVGID_00000123421048136771083660000004116415279737254294_" gradientUnits="userSpaceOnUse" x1="43.3221" y1="49.8847" x2="7.1862" y2="13.7488">
			<stop  offset="0" style="stop-color:#0D67B0"/>
			<stop  offset="1" style="stop-color:#009FE2"/>
		</linearGradient>
		<path style="fill:url(#SVGID_00000123421048136771083660000004116415279737254294_);" d="M12.2,15.28c0,1.93-1.56,3.49-3.49,3.49
			c-0.87,0-1.67-0.32-2.28-0.85c-0.74-0.64-1.21-1.58-1.21-2.64c0-1.93,1.56-3.49,3.49-3.49c1.05,0,2,0.47,2.63,1.2
			C11.88,13.61,12.2,14.41,12.2,15.28z"/>
	</g>
	<g>
		
			<linearGradient id="SVGID_00000145040732931795984670000003968348224629488551_" gradientUnits="userSpaceOnUse" x1="43.3456" y1="49.8624" x2="7.2098" y2="13.7266">
			<stop  offset="0" style="stop-color:#0D67B0"/>
			<stop  offset="1" style="stop-color:#009FE2"/>
		</linearGradient>
		<path style="fill:url(#SVGID_00000145040732931795984670000003968348224629488551_);" d="M44.25,47.28c0,1.93-1.56,3.49-3.49,3.49
			c-1.05,0-2-0.47-2.63-1.2c-0.53-0.61-0.85-1.41-0.85-2.28c0-1.93,1.56-3.49,3.49-3.49c0.87,0,1.67,0.32,2.28,0.85
			C43.79,45.28,44.25,46.23,44.25,47.28z"/>
	</g>
	<g>
		
			<linearGradient id="SVGID_00000155864234254335551070000003711265668957669553_" gradientUnits="userSpaceOnUse" x1="42.6386" y1="49.5896" x2="7.4541" y2="14.4051">
			<stop  offset="0" style="stop-color:#0D67B0"/>
			<stop  offset="1" style="stop-color:#009FE2"/>
		</linearGradient>
		<path style="fill:url(#SVGID_00000155864234254335551070000003711265668957669553_);" d="M24.74,8.62c-4.38,0-8.47,1.24-11.94,3.4
			c0.72,0.9,1.14,2.03,1.14,3.27c0,2.89-2.34,5.23-5.23,5.23c-1.23,0-2.36-0.43-3.26-1.14c-2.14,3.46-3.38,7.54-3.38,11.91
			c0,7.28,3.43,13.75,8.76,17.9c1.67-0.37,3.58-1.3,5.56-2.7c0.97-0.69,1.94-1.47,2.91-2.35c-5.01-2.12-8.52-7.07-8.52-12.85
			c0-7.7,6.24-13.95,13.95-13.95c3.6,0,6.89,1.37,9.36,3.61c1.35-3.6,2.16-6.63,2.64-8.89C33.26,9.88,29.15,8.62,24.74,8.62z
			 M45.96,23.31c-2.15,5.35-5.17,10.81-9,16.26c-4.42,6.29-9.47,11.06-15.04,14.2c0.92,0.11,1.86,0.17,2.82,0.17
			c4.38,0,8.47-1.24,11.94-3.4c-0.72-0.9-1.14-2.03-1.14-3.27c0-2.89,2.34-5.23,5.23-5.23c1.23,0,2.36,0.43,3.26,1.14
			c2.14-3.46,3.38-7.54,3.38-11.91C47.4,28.47,46.89,25.79,45.96,23.31z"/>
	</g>
	<g>
		
			<linearGradient id="SVGID_00000001623274334765081420000008553275261556897455_" gradientUnits="userSpaceOnUse" x1="43.9593" y1="-0.1393" x2="8.4975" y2="56.652">
			<stop  offset="0" style="stop-color:#FFCF1C"/>
			<stop  offset="1" style="stop-color:#ED9104"/>
		</linearGradient>
		<path style="fill:url(#SVGID_00000001623274334765081420000008553275261556897455_);" d="M48.9,11.15l-1.35-0.36
			c-0.15,1.55-0.7,5.15-2.59,10.26c-1.37,3.7-3.45,8.19-6.61,13.26c-0.86,1.38-1.8,2.8-2.82,4.27c-1.22,1.74-2.46,3.31-3.69,4.72
			c-4.42,5.04-8.85,8.11-12.68,9.96C14.29,55.6,10.39,56,8.72,56C3.9,56,0,52.1,0,47.28c0-1.65,0.46-3.19,1.25-4.5
			c-1.85,6.71,3.79,9.07,9.32,8.22c0.68-0.1,1.38-0.29,2.1-0.54c1.52-0.54,3.12-1.4,4.75-2.56c1.25-0.88,2.51-1.93,3.77-3.14
			c1.97-1.88,3.93-4.13,5.79-6.68c1.64-2.26,3.21-4.75,4.63-7.43c0.02-0.04,0.05-0.09,0.07-0.13c1.55-2.93,2.79-5.69,3.76-8.2
			c1.42-3.65,2.31-6.79,2.85-9.22c0.48-2.13,0.7-3.7,0.8-4.6L37.7,8.15c-0.67-0.18-0.87-1.03-0.36-1.49L45,0.22
			C45.47-0.2,46.21,0,46.41,0.6l3.54,9.43C50.17,10.69,49.57,11.33,48.9,11.15z"/>
	</g>
</g>
</svg>
