<?xml version="1.0" encoding="utf-8"?>
<!-- Generator: Adobe Illustrator 26.0.1, SVG Export Plug-In . SVG Version: 6.00 Build 0)  -->
<svg version="1.1" id="Layer_1" xmlns="http://www.w3.org/2000/svg" xmlns:xlink="http://www.w3.org/1999/xlink" x="0px" y="0px"
	 viewBox="0 0 94 56" style="enable-background:new 0 0 94 56;" xml:space="preserve">
<style type="text/css">
	.st0{fill:url(#SVGID_1_);}
	.st1{fill:url(#SVGID_00000114772602061123142810000017443072713028882576_);}
	.st2{fill:url(#SVGID_00000159445427660279099740000010782280379671621791_);}
	.st3{fill:url(#SVGID_00000058552457432326966670000007468890618978663042_);}
	.st4{fill:url(#SVGID_00000116216131542345146470000005994060880548995234_);}
	.st5{fill:#4C4C4C;}
	.st6{fill:#0D67B0;}
	.st7{fill:url(#SVGID_00000099661781662942471700000008525056828990395542_);}
	.st8{fill:url(#SVGID_00000088099817602496360650000014247934728563080600_);}
	.st9{fill:url(#SVGID_00000102523466285657800160000016393346309677804672_);}
	.st10{fill:url(#SVGID_00000161608135444111276260000010867008615116255387_);}
	.st11{fill:url(#SVGID_00000043437430157076869590000001429971823422979212_);}
	.st12{fill:#FFFFFF;}
	.st13{fill:#009EE1;}
	.st14{fill:#ED9104;}
	.st15{fill:#FFCF1C;}
	.st16{fill:url(#SVGID_00000009582872338029414600000014004931413895518379_);}
	.st17{fill:url(#SVGID_00000134964611907923996330000010054355839811582896_);}
	.st18{fill:url(#SVGID_00000086688074306557110940000013748632890506721193_);}
	.st19{fill:url(#SVGID_00000054969152349134862050000005787458513543399306_);}
	.st20{fill:url(#SVGID_00000165935155834292334280000012456737351673650077_);}
	.st21{fill:url(#SVGID_00000142890330125301448560000010709074805043744700_);}
	.st22{fill:url(#SVGID_00000079471538431757316170000011846094890254894761_);}
</style>
<g>
	<g>
		<g>
			<g>
				<linearGradient id="SVGID_1_" gradientUnits="userSpaceOnUse" x1="16.0256" y1="31.243" x2="31.8789" y2="31.243">
					<stop  offset="0" style="stop-color:#0D67B0"/>
					<stop  offset="1" style="stop-color:#009FE2"/>
				</linearGradient>
				<path class="st0" d="M31.68,25.92c-0.16-0.25-0.47-0.37-0.76-0.3l-1.28,0.31c-0.19,0.05-0.4,0.01-0.56-0.1l-0.84-0.57
					c-0.16-0.11-0.27-0.29-0.3-0.49l-0.18-1.31c-0.04-0.3-0.26-0.53-0.55-0.59l-1.36-0.28c-0.29-0.06-0.59,0.07-0.74,0.32
					l-0.69,1.13c-0.1,0.17-0.28,0.29-0.47,0.32l-1,0.19c-0.19,0.04-0.4-0.01-0.55-0.13l-1.05-0.8c-0.24-0.18-0.56-0.19-0.81-0.03
					l-1.16,0.76c-0.25,0.16-0.37,0.46-0.3,0.75l0.31,1.29c0.05,0.19,0.01,0.4-0.1,0.56l-0.57,0.84c-0.11,0.16-0.29,0.27-0.49,0.3
					l-1.31,0.18c-0.3,0.04-0.53,0.26-0.6,0.55l-0.28,1.35c-0.06,0.29,0.07,0.59,0.32,0.75l1.13,0.69c0.17,0.1,0.29,0.28,0.33,0.47
					L18,33.07c0.04,0.2-0.01,0.4-0.13,0.56l-0.8,1.05c-0.18,0.24-0.19,0.56-0.03,0.81l0.76,1.16c0.16,0.25,0.47,0.37,0.76,0.3
					l1.28-0.31c0.19-0.05,0.4-0.01,0.56,0.1l0.84,0.57c0.16,0.11,0.27,0.29,0.3,0.49l0.18,1.31c0.04,0.3,0.26,0.53,0.55,0.59
					l1.06,0.22c1.27-1.51,2.49-3.15,3.65-4.9c-0.66,0.39-1.42,0.62-2.24,0.62c-2.41,0-4.36-1.95-4.36-4.36
					c0-2.41,1.95-4.36,4.36-4.36c2.41,0,4.36,1.95,4.36,4.36c0,0.11,0,0.23-0.01,0.34c0.34-0.58,0.66-1.18,0.98-1.78
					c0.66-1.24,1.26-2.45,1.81-3.63L31.68,25.92z"/>
			</g>
		</g>
		<g>
			
				<linearGradient id="SVGID_00000101076158207956078730000007976496830760371874_" gradientUnits="userSpaceOnUse" x1="43.322" y1="49.8846" x2="7.1862" y2="13.7488">
				<stop  offset="0" style="stop-color:#0D67B0"/>
				<stop  offset="1" style="stop-color:#009FE2"/>
			</linearGradient>
			<path style="fill:url(#SVGID_00000101076158207956078730000007976496830760371874_);" d="M12.2,15.28c0,1.93-1.56,3.49-3.49,3.49
				c-0.87,0-1.67-0.32-2.28-0.85c-0.74-0.64-1.21-1.58-1.21-2.64c0-1.93,1.56-3.49,3.49-3.49c1.05,0,2,0.47,2.63,1.2
				C11.88,13.61,12.2,14.41,12.2,15.28z"/>
		</g>
		<g>
			
				<linearGradient id="SVGID_00000088817292631399458560000011402504733266486146_" gradientUnits="userSpaceOnUse" x1="43.3456" y1="49.8624" x2="7.2098" y2="13.7266">
				<stop  offset="0" style="stop-color:#0D67B0"/>
				<stop  offset="1" style="stop-color:#009FE2"/>
			</linearGradient>
			<path style="fill:url(#SVGID_00000088817292631399458560000011402504733266486146_);" d="M44.25,47.28
				c0,1.93-1.56,3.49-3.49,3.49c-1.05,0-2-0.47-2.63-1.2c-0.53-0.61-0.85-1.41-0.85-2.28c0-1.93,1.56-3.49,3.49-3.49
				c0.87,0,1.67,0.32,2.28,0.85C43.79,45.28,44.25,46.23,44.25,47.28z"/>
		</g>
		<g>
			
				<linearGradient id="SVGID_00000120547789352187562600000013763880633331236796_" gradientUnits="userSpaceOnUse" x1="42.6385" y1="49.5896" x2="7.4539" y2="14.405">
				<stop  offset="0" style="stop-color:#0D67B0"/>
				<stop  offset="1" style="stop-color:#009FE2"/>
			</linearGradient>
			<path style="fill:url(#SVGID_00000120547789352187562600000013763880633331236796_);" d="M24.74,8.62
				c-4.38,0-8.47,1.24-11.94,3.4c0.72,0.9,1.14,2.03,1.14,3.27c0,2.89-2.34,5.23-5.23,5.23c-1.23,0-2.36-0.43-3.26-1.14
				c-2.14,3.46-3.38,7.54-3.38,11.91c0,7.28,3.43,13.75,8.76,17.9c1.67-0.37,3.58-1.3,5.56-2.7c0.97-0.69,1.94-1.47,2.91-2.35
				c-5.01-2.12-8.52-7.07-8.52-12.85c0-7.7,6.24-13.95,13.95-13.95c3.6,0,6.89,1.37,9.36,3.61c1.35-3.6,2.16-6.64,2.64-8.89
				C33.26,9.88,29.15,8.62,24.74,8.62z M45.96,23.31c-2.15,5.35-5.17,10.81-9,16.26c-4.42,6.29-9.47,11.06-15.04,14.2
				c0.92,0.11,1.86,0.17,2.82,0.17c4.38,0,8.47-1.24,11.94-3.4c-0.72-0.9-1.14-2.03-1.14-3.27c0-2.89,2.34-5.23,5.23-5.23
				c1.23,0,2.36,0.43,3.26,1.14c2.14-3.46,3.38-7.54,3.38-11.91C47.4,28.47,46.89,25.79,45.96,23.31z"/>
		</g>
		<g>
			
				<linearGradient id="SVGID_00000127725350338581585160000001819508702873983361_" gradientUnits="userSpaceOnUse" x1="43.9593" y1="-0.1392" x2="8.4975" y2="56.652">
				<stop  offset="0" style="stop-color:#FFCF1C"/>
				<stop  offset="1" style="stop-color:#ED9104"/>
			</linearGradient>
			<path style="fill:url(#SVGID_00000127725350338581585160000001819508702873983361_);" d="M48.9,11.15l-1.35-0.36
				c-0.15,1.55-0.7,5.15-2.59,10.26c-1.37,3.7-3.45,8.19-6.61,13.26c-0.86,1.38-1.8,2.8-2.82,4.27c-1.22,1.74-2.46,3.31-3.69,4.72
				c-4.42,5.04-8.85,8.11-12.68,9.96C14.29,55.6,10.39,56,8.72,56C3.9,56,0,52.1,0,47.28c0-1.65,0.46-3.19,1.25-4.5
				c-1.85,6.71,3.79,9.07,9.32,8.22c0.68-0.1,1.38-0.29,2.1-0.54c1.52-0.54,3.12-1.4,4.75-2.56c1.25-0.88,2.51-1.93,3.77-3.14
				c1.97-1.88,3.93-4.13,5.79-6.68c1.64-2.26,3.21-4.75,4.63-7.43c0.02-0.04,0.05-0.09,0.07-0.13c1.55-2.93,2.79-5.69,3.76-8.2
				c1.42-3.65,2.31-6.79,2.85-9.22c0.48-2.13,0.7-3.7,0.8-4.6L37.7,8.15c-0.67-0.18-0.87-1.03-0.36-1.49L45,0.22
				C45.47-0.2,46.21,0,46.41,0.6l3.54,9.43C50.17,10.69,49.57,11.33,48.9,11.15z"/>
		</g>
	</g>
	<g>
		<g>
			<g>
				<g>
					<g>
						<path class="st5" d="M59.5,43.94h0.28l0.97,2.32h0.02l0.97-2.32h0.28v2.67h-0.23v-2.15h-0.02l-0.9,2.15h-0.22l-0.9-2.15h-0.02
							v2.15H59.5V43.94z"/>
						<path class="st5" d="M63.39,46.61h-0.26l0.97-2.67h0.26l0.97,2.67h-0.26l-0.84-2.35h-0.02L63.39,46.61z M63.58,45.58h1.32
							v0.22h-1.32V45.58z"/>
						<path class="st5" d="M66.45,46.61v-2.67h0.24v1.44h0.02l1.3-1.44h0.32l-1.14,1.23l1.13,1.43h-0.3l-0.99-1.26l-0.36,0.4v0.87
							H66.45z"/>
						<path class="st5" d="M69.46,46.61v-2.67h1.55v0.22h-1.3v1h1.22v0.22h-1.22v1.01h1.33v0.22H69.46z"/>
						<path class="st5" d="M74.23,43.94v2.67h-0.24v-2.67H74.23z"/>
						<path class="st5" d="M75.44,44.16v-0.22h1.93v0.22h-0.85v2.45h-0.24v-2.45H75.44z"/>
						<path class="st5" d="M82.12,44.77c-0.02-0.09-0.06-0.17-0.11-0.25c-0.05-0.08-0.1-0.15-0.17-0.2
							c-0.07-0.06-0.15-0.1-0.24-0.14c-0.09-0.03-0.19-0.05-0.3-0.05c-0.17,0-0.33,0.05-0.47,0.14c-0.14,0.09-0.25,0.22-0.32,0.39
							c-0.08,0.17-0.12,0.38-0.12,0.61c0,0.24,0.04,0.44,0.12,0.61c0.08,0.17,0.19,0.3,0.33,0.39c0.14,0.09,0.3,0.14,0.48,0.14
							c0.16,0,0.31-0.04,0.44-0.11c0.13-0.07,0.22-0.18,0.29-0.31c0.07-0.14,0.11-0.3,0.1-0.48l0.08,0.02h-0.85v-0.22h1.01v0.22
							c0,0.23-0.05,0.42-0.14,0.59c-0.09,0.17-0.22,0.29-0.38,0.38c-0.16,0.09-0.35,0.14-0.55,0.14c-0.23,0-0.44-0.06-0.61-0.17
							C80.53,46.36,80.4,46.2,80.3,46s-0.15-0.45-0.15-0.72c0-0.21,0.03-0.4,0.08-0.57c0.06-0.17,0.13-0.31,0.24-0.43
							c0.1-0.12,0.22-0.21,0.36-0.28c0.14-0.06,0.29-0.1,0.46-0.1c0.15,0,0.28,0.02,0.4,0.07c0.12,0.05,0.23,0.11,0.32,0.19
							c0.09,0.08,0.17,0.17,0.23,0.28c0.06,0.1,0.1,0.22,0.12,0.33H82.12z"/>
						<path class="st5" d="M83.65,46.61v-2.67h0.86c0.19,0,0.35,0.03,0.47,0.1c0.13,0.07,0.22,0.16,0.29,0.28
							c0.06,0.12,0.1,0.26,0.1,0.41c0,0.16-0.03,0.29-0.1,0.41c-0.06,0.12-0.16,0.21-0.29,0.28s-0.28,0.1-0.47,0.1h-0.73V45.3h0.73
							c0.14,0,0.25-0.02,0.35-0.07c0.09-0.05,0.16-0.11,0.21-0.2c0.05-0.09,0.07-0.19,0.07-0.3c0-0.12-0.02-0.22-0.07-0.31
							s-0.12-0.15-0.21-0.2c-0.09-0.05-0.21-0.07-0.35-0.07H83.9v2.45H83.65z M84.83,45.4l0.66,1.2H85.2l-0.65-1.2H84.83z"/>
						<path class="st5" d="M86.63,46.61v-2.67h1.55v0.22h-1.3v1h1.22v0.22h-1.22v1.01h1.33v0.22H86.63z"/>
						<path class="st5" d="M89.47,46.61h-0.26l0.97-2.67h0.26l0.97,2.67h-0.26l-0.84-2.35H90.3L89.47,46.61z M89.65,45.58h1.32v0.22
							h-1.32V45.58z"/>
						<path class="st5" d="M92.06,44.16v-0.22h1.93v0.22h-0.85v2.45H92.9v-2.45H92.06z"/>
					</g>
				</g>
			</g>
		</g>
		<g>
			<path class="st6" d="M80.1,35.41v3.58H94v-3.58H80.1z M93.96,22.01v-3.59H80.1v3.59H93.96z"/>
			<path class="st6" d="M71.25,24.34c-0.08-0.81-0.43-1.44-1.03-1.89c-0.61-0.45-1.44-0.67-2.48-0.67c-0.71,0-1.31,0.1-1.8,0.3
				c-0.49,0.2-0.86,0.47-1.12,0.82c-0.26,0.35-0.39,0.74-0.39,1.19c-0.01,0.37,0.07,0.69,0.24,0.96c0.17,0.27,0.41,0.51,0.71,0.71
				c0.3,0.2,0.65,0.37,1.04,0.51c0.39,0.14,0.82,0.27,1.27,0.37l1.85,0.44c0.9,0.2,1.72,0.47,2.47,0.8c0.75,0.33,1.4,0.75,1.95,1.24
				c0.55,0.49,0.98,1.06,1.28,1.73c0.3,0.66,0.46,1.42,0.47,2.28c-0.01,1.26-0.33,2.35-0.96,3.27c-0.63,0.92-1.54,1.63-2.73,2.14
				c-1.19,0.51-2.62,0.76-4.29,0.76c-1.66,0-3.11-0.25-4.33-0.76c-1.23-0.51-2.19-1.26-2.87-2.26s-1.05-2.24-1.08-3.72h4.21
				c0.05,0.69,0.25,1.26,0.6,1.72c0.35,0.46,0.82,0.8,1.42,1.03c0.59,0.23,1.26,0.35,2.01,0.35c0.74,0,1.38-0.11,1.92-0.32
				c0.55-0.21,0.97-0.51,1.27-0.89c0.3-0.38,0.45-0.82,0.45-1.32c0-0.46-0.14-0.85-0.41-1.17c-0.27-0.31-0.67-0.58-1.19-0.8
				s-1.15-0.42-1.9-0.6l-2.24-0.56c-1.73-0.42-3.1-1.08-4.11-1.98c-1-0.9-1.5-2.11-1.5-3.63c-0.01-1.25,0.33-2.33,1-3.26
				c0.67-0.93,1.6-1.66,2.78-2.18c1.18-0.52,2.52-0.78,4.02-0.78c1.53,0,2.86,0.26,4,0.78c1.14,0.52,2.03,1.25,2.67,2.18
				c0.64,0.93,0.96,2.01,0.98,3.23H71.25z"/>
			<rect x="84.88" y="21.63" class="st6" width="4.35" height="17.36"/>
		</g>
	</g>
</g>
</svg>
